<svg xmlns="http://www.w3.org/2000/svg" width="19" height="19" viewBox="0 0 19 19" fill="none">
<g clip-path="url(#clip0_0_65)">
<path d="M9.5 19C14.7467 19 19 14.7467 19 9.5C19 4.25329 14.7467 0 9.5 0C4.25329 0 0 4.25329 0 9.5C0 14.7467 4.25329 19 9.5 19Z" fill="#1761F5"/>
<path fill-rule="evenodd" clip-rule="evenodd" d="M6.53287 14.1344L3.05841 10.4157C2.58274 9.90661 2.61004 9.10113 3.11915 8.62545C3.62826 8.14978 4.43374 8.17716 4.90942 8.68619L7.58946 11.5546L11.8316 7.591C11.8698 7.55532 11.9096 7.52263 11.9509 7.49256L13.9458 5.62869C14.4549 5.15302 15.2604 5.18039 15.736 5.6895C16.2117 6.19854 16.1843 7.00409 15.6753 7.47977L9.58229 13.1727L9.57579 13.1657L7.46813 15.135L6.53287 14.1344Z" fill="white"/>
</g>
<defs>
<clipPath id="clip0_0_65">
<rect width="19" height="19" fill="white"/>
</clipPath>
</defs>
</svg>